<mxfile host="Electron" modified="2024-05-28T18:51:03.415Z" agent="Mozilla/5.0 (Windows NT 10.0; Win64; x64) AppleWebKit/537.36 (KHTML, like Gecko) draw.io/24.4.0 Chrome/120.0.6099.109 Electron/28.1.0 Safari/537.36" etag="cDVCctAtYSUSJdotW6QZ" version="24.4.0" type="device" pages="4">
  <diagram id="PrxbUzT_brJSlp_YTUYn" name="Flujo de conexión unificado">
    <mxGraphModel dx="1434" dy="854" grid="1" gridSize="10" guides="1" tooltips="1" connect="1" arrows="1" fold="1" page="1" pageScale="1" pageWidth="827" pageHeight="1169" math="0" shadow="0">
      <root>
        <mxCell id="0" />
        <mxCell id="1" parent="0" />
        <mxCell id="7QHZK1yzsQglReSWaJz9-1" value="Sistema" style="rounded=0;whiteSpace=wrap;html=1;verticalAlign=top;fillColor=#cce5ff;strokeColor=#36393d;" vertex="1" parent="1">
          <mxGeometry x="134" y="40" width="560" height="760" as="geometry" />
        </mxCell>
        <mxCell id="7QHZK1yzsQglReSWaJz9-23" style="orthogonalLoop=1;jettySize=auto;html=1;entryX=0;entryY=0.5;entryDx=0;entryDy=0;endArrow=none;endFill=0;edgeStyle=orthogonalEdgeStyle;elbow=vertical;" edge="1" parent="1" source="7QHZK1yzsQglReSWaJz9-2" target="7QHZK1yzsQglReSWaJz9-5">
          <mxGeometry relative="1" as="geometry">
            <Array as="points">
              <mxPoint x="180" y="280" />
              <mxPoint x="180" y="125" />
            </Array>
          </mxGeometry>
        </mxCell>
        <mxCell id="7QHZK1yzsQglReSWaJz9-24" style="orthogonalLoop=1;jettySize=auto;html=1;entryX=0;entryY=0.5;entryDx=0;entryDy=0;endArrow=none;endFill=0;edgeStyle=orthogonalEdgeStyle;elbow=vertical;" edge="1" parent="1" source="7QHZK1yzsQglReSWaJz9-2" target="7QHZK1yzsQglReSWaJz9-6">
          <mxGeometry relative="1" as="geometry">
            <Array as="points">
              <mxPoint x="180" y="280" />
              <mxPoint x="180" y="420" />
            </Array>
          </mxGeometry>
        </mxCell>
        <mxCell id="7QHZK1yzsQglReSWaJz9-25" style="orthogonalLoop=1;jettySize=auto;html=1;entryX=0;entryY=0.5;entryDx=0;entryDy=0;endArrow=none;endFill=0;edgeStyle=orthogonalEdgeStyle;elbow=vertical;" edge="1" parent="1" source="7QHZK1yzsQglReSWaJz9-2" target="7QHZK1yzsQglReSWaJz9-4">
          <mxGeometry relative="1" as="geometry">
            <Array as="points">
              <mxPoint x="180" y="280" />
              <mxPoint x="180" y="715" />
            </Array>
          </mxGeometry>
        </mxCell>
        <mxCell id="7QHZK1yzsQglReSWaJz9-42" style="edgeStyle=orthogonalEdgeStyle;orthogonalLoop=1;jettySize=auto;html=1;entryX=0;entryY=0.5;entryDx=0;entryDy=0;elbow=vertical;endArrow=none;endFill=0;" edge="1" parent="1" source="7QHZK1yzsQglReSWaJz9-2" target="7QHZK1yzsQglReSWaJz9-28">
          <mxGeometry relative="1" as="geometry">
            <Array as="points">
              <mxPoint x="180" y="280" />
              <mxPoint x="180" y="275" />
            </Array>
          </mxGeometry>
        </mxCell>
        <mxCell id="7QHZK1yzsQglReSWaJz9-2" value="Anfitrión" style="shape=umlActor;verticalLabelPosition=bottom;verticalAlign=top;html=1;outlineConnect=0;fillColor=#cce5ff;strokeColor=#36393d;rounded=0;" vertex="1" parent="1">
          <mxGeometry x="40" y="240" width="40" height="80" as="geometry" />
        </mxCell>
        <mxCell id="7QHZK1yzsQglReSWaJz9-26" style="orthogonalLoop=1;jettySize=auto;html=1;entryX=0;entryY=0.5;entryDx=0;entryDy=0;endArrow=none;endFill=0;edgeStyle=orthogonalEdgeStyle;elbow=vertical;" edge="1" parent="1" source="7QHZK1yzsQglReSWaJz9-3" target="7QHZK1yzsQglReSWaJz9-6">
          <mxGeometry relative="1" as="geometry">
            <Array as="points">
              <mxPoint x="230" y="560" />
              <mxPoint x="230" y="420" />
            </Array>
          </mxGeometry>
        </mxCell>
        <mxCell id="7QHZK1yzsQglReSWaJz9-27" style="orthogonalLoop=1;jettySize=auto;html=1;entryX=0;entryY=0.5;entryDx=0;entryDy=0;endArrow=none;endFill=0;edgeStyle=orthogonalEdgeStyle;elbow=vertical;" edge="1" parent="1" source="7QHZK1yzsQglReSWaJz9-3" target="7QHZK1yzsQglReSWaJz9-4">
          <mxGeometry relative="1" as="geometry">
            <Array as="points">
              <mxPoint x="230" y="560" />
              <mxPoint x="230" y="715" />
            </Array>
          </mxGeometry>
        </mxCell>
        <mxCell id="7QHZK1yzsQglReSWaJz9-41" style="edgeStyle=orthogonalEdgeStyle;orthogonalLoop=1;jettySize=auto;html=1;entryX=0;entryY=0.5;entryDx=0;entryDy=0;elbow=vertical;endArrow=none;endFill=0;" edge="1" parent="1" source="7QHZK1yzsQglReSWaJz9-3" target="7QHZK1yzsQglReSWaJz9-29">
          <mxGeometry relative="1" as="geometry">
            <Array as="points">
              <mxPoint x="230" y="560" />
              <mxPoint x="230" y="565" />
            </Array>
          </mxGeometry>
        </mxCell>
        <mxCell id="7QHZK1yzsQglReSWaJz9-3" value="Cliente" style="shape=umlActor;verticalLabelPosition=bottom;verticalAlign=top;html=1;outlineConnect=0;fillColor=#ffcc99;strokeColor=#36393d;rounded=0;" vertex="1" parent="1">
          <mxGeometry x="40" y="520" width="40" height="80" as="geometry" />
        </mxCell>
        <mxCell id="7QHZK1yzsQglReSWaJz9-4" value="Salir de la aplicación" style="ellipse;whiteSpace=wrap;html=1;fillColor=#ffff88;strokeColor=#36393d;fontStyle=0;rounded=0;" vertex="1" parent="1">
          <mxGeometry x="344" y="690" width="140" height="50" as="geometry" />
        </mxCell>
        <mxCell id="7QHZK1yzsQglReSWaJz9-5" value="Iniciar modo un jugador" style="ellipse;whiteSpace=wrap;html=1;fillColor=#ffff88;strokeColor=#36393d;fontStyle=0;rounded=0;" vertex="1" parent="1">
          <mxGeometry x="344" y="100" width="140" height="50" as="geometry" />
        </mxCell>
        <mxCell id="7QHZK1yzsQglReSWaJz9-6" value="Iniciar modo multijugador" style="ellipse;whiteSpace=wrap;html=1;fillColor=#ffff88;strokeColor=#36393d;fontStyle=0;rounded=0;" vertex="1" parent="1">
          <mxGeometry x="344" y="395" width="140" height="50" as="geometry" />
        </mxCell>
        <mxCell id="7QHZK1yzsQglReSWaJz9-45" style="edgeStyle=orthogonalEdgeStyle;curved=1;orthogonalLoop=1;jettySize=auto;html=1;elbow=vertical;endArrow=open;endFill=0;dashed=1;" edge="1" parent="1" source="7QHZK1yzsQglReSWaJz9-28" target="7QHZK1yzsQglReSWaJz9-6">
          <mxGeometry relative="1" as="geometry" />
        </mxCell>
        <mxCell id="7QHZK1yzsQglReSWaJz9-46" value="&amp;lt;&amp;lt;include&amp;gt;&amp;gt;" style="edgeLabel;html=1;align=center;verticalAlign=middle;resizable=0;points=[];" vertex="1" connectable="0" parent="7QHZK1yzsQglReSWaJz9-45">
          <mxGeometry x="-0.0316" relative="1" as="geometry">
            <mxPoint as="offset" />
          </mxGeometry>
        </mxCell>
        <mxCell id="7QHZK1yzsQglReSWaJz9-28" value="Crear una sala" style="ellipse;whiteSpace=wrap;html=1;fillColor=#ffff88;strokeColor=#36393d;fontStyle=0" vertex="1" parent="1">
          <mxGeometry x="344" y="250" width="140" height="50" as="geometry" />
        </mxCell>
        <mxCell id="7QHZK1yzsQglReSWaJz9-44" style="edgeStyle=orthogonalEdgeStyle;curved=1;orthogonalLoop=1;jettySize=auto;html=1;elbow=vertical;endArrow=open;endFill=0;dashed=1;" edge="1" parent="1" source="7QHZK1yzsQglReSWaJz9-29" target="7QHZK1yzsQglReSWaJz9-6">
          <mxGeometry relative="1" as="geometry" />
        </mxCell>
        <mxCell id="7QHZK1yzsQglReSWaJz9-47" value="&amp;lt;&amp;lt;include&amp;gt;&amp;gt;" style="edgeLabel;html=1;align=center;verticalAlign=middle;resizable=0;points=[];" vertex="1" connectable="0" parent="7QHZK1yzsQglReSWaJz9-44">
          <mxGeometry x="-0.0105" relative="1" as="geometry">
            <mxPoint as="offset" />
          </mxGeometry>
        </mxCell>
        <mxCell id="7QHZK1yzsQglReSWaJz9-29" value="Unirse a una sala" style="ellipse;whiteSpace=wrap;html=1;fillColor=#ffff88;strokeColor=#36393d;fontStyle=0" vertex="1" parent="1">
          <mxGeometry x="344" y="540" width="140" height="50" as="geometry" />
        </mxCell>
      </root>
    </mxGraphModel>
  </diagram>
  <diagram id="nN-CeOFFj626wSlnZ3Y3" name="Flujo del modo un jugador">
    <mxGraphModel dx="1434" dy="854" grid="1" gridSize="10" guides="1" tooltips="1" connect="1" arrows="1" fold="1" page="1" pageScale="1" pageWidth="827" pageHeight="1169" math="0" shadow="0">
      <root>
        <mxCell id="0" />
        <mxCell id="1" parent="0" />
        <mxCell id="7gB8L9tUJM9J39red3pJ-2" value="Aplicación" style="rounded=0;whiteSpace=wrap;html=1;verticalAlign=top;fillColor=#cce5ff;strokeColor=#36393d;" vertex="1" parent="1">
          <mxGeometry x="280" y="240" width="280" height="320" as="geometry" />
        </mxCell>
        <mxCell id="ZM_u-nhkdogsaTdhAehk-3" style="edgeStyle=orthogonalEdgeStyle;orthogonalLoop=1;jettySize=auto;html=1;elbow=vertical;endArrow=none;endFill=0;" edge="1" parent="1" source="7gB8L9tUJM9J39red3pJ-1" target="7gB8L9tUJM9J39red3pJ-3">
          <mxGeometry relative="1" as="geometry">
            <Array as="points">
              <mxPoint x="300" y="400" />
              <mxPoint x="300" y="335" />
            </Array>
          </mxGeometry>
        </mxCell>
        <mxCell id="ZM_u-nhkdogsaTdhAehk-4" style="edgeStyle=orthogonalEdgeStyle;orthogonalLoop=1;jettySize=auto;html=1;entryX=0;entryY=0.5;entryDx=0;entryDy=0;elbow=vertical;endArrow=none;endFill=0;" edge="1" parent="1" source="7gB8L9tUJM9J39red3pJ-1" target="aNs8PqJXAxMOyQir8FQB-1">
          <mxGeometry relative="1" as="geometry">
            <Array as="points">
              <mxPoint x="300" y="400" />
              <mxPoint x="300" y="475" />
            </Array>
          </mxGeometry>
        </mxCell>
        <mxCell id="7gB8L9tUJM9J39red3pJ-1" value="Anfitrión" style="shape=umlActor;verticalLabelPosition=bottom;verticalAlign=top;html=1;outlineConnect=0;fillColor=#cce5ff;strokeColor=#36393d;" vertex="1" parent="1">
          <mxGeometry x="160" y="360" width="40" height="80" as="geometry" />
        </mxCell>
        <mxCell id="7gB8L9tUJM9J39red3pJ-3" value="Iniciar modo un jugador" style="ellipse;whiteSpace=wrap;html=1;fillColor=#ffff88;strokeColor=#36393d;fontStyle=0" vertex="1" parent="1">
          <mxGeometry x="350" y="310" width="140" height="50" as="geometry" />
        </mxCell>
        <mxCell id="aNs8PqJXAxMOyQir8FQB-1" value="Salir de la aplicación" style="ellipse;whiteSpace=wrap;html=1;fillColor=#ffff88;strokeColor=#36393d;fontStyle=0" vertex="1" parent="1">
          <mxGeometry x="350" y="450" width="140" height="50" as="geometry" />
        </mxCell>
      </root>
    </mxGraphModel>
  </diagram>
  <diagram id="f9t3B2hXJTeq8ucIegUC" name="Flujo del modo multijugador">
    <mxGraphModel dx="1434" dy="854" grid="1" gridSize="10" guides="1" tooltips="1" connect="1" arrows="1" fold="1" page="1" pageScale="1" pageWidth="827" pageHeight="1169" math="0" shadow="0">
      <root>
        <mxCell id="0" />
        <mxCell id="1" parent="0" />
        <mxCell id="LUcZ1yVxdwstfHm7k2aB-1" value="Sistema" style="rounded=0;whiteSpace=wrap;html=1;verticalAlign=top;fillColor=#cce5ff;strokeColor=#36393d;" vertex="1" parent="1">
          <mxGeometry x="240" y="120" width="400" height="680" as="geometry" />
        </mxCell>
        <mxCell id="a0qmMqRgLdHtGVO5NYJr-3" style="edgeStyle=orthogonalEdgeStyle;orthogonalLoop=1;jettySize=auto;html=1;entryX=0;entryY=0.5;entryDx=0;entryDy=0;elbow=vertical;endArrow=none;endFill=0;" edge="1" parent="1" source="LUcZ1yVxdwstfHm7k2aB-2" target="a0qmMqRgLdHtGVO5NYJr-1">
          <mxGeometry relative="1" as="geometry" />
        </mxCell>
        <mxCell id="a0qmMqRgLdHtGVO5NYJr-4" style="edgeStyle=orthogonalEdgeStyle;orthogonalLoop=1;jettySize=auto;html=1;entryX=0;entryY=0.5;entryDx=0;entryDy=0;elbow=vertical;endArrow=none;endFill=0;jumpStyle=none;" edge="1" parent="1" source="LUcZ1yVxdwstfHm7k2aB-2" target="LUcZ1yVxdwstfHm7k2aB-5">
          <mxGeometry relative="1" as="geometry" />
        </mxCell>
        <mxCell id="a0qmMqRgLdHtGVO5NYJr-5" style="edgeStyle=orthogonalEdgeStyle;orthogonalLoop=1;jettySize=auto;html=1;entryX=0;entryY=0.5;entryDx=0;entryDy=0;elbow=vertical;endArrow=none;endFill=0;" edge="1" parent="1" source="LUcZ1yVxdwstfHm7k2aB-2" target="2HoHB4noClraIpFDfGN8-1">
          <mxGeometry relative="1" as="geometry" />
        </mxCell>
        <mxCell id="a0qmMqRgLdHtGVO5NYJr-6" style="edgeStyle=orthogonalEdgeStyle;orthogonalLoop=1;jettySize=auto;html=1;entryX=0;entryY=0.5;entryDx=0;entryDy=0;elbow=vertical;endArrow=none;endFill=0;" edge="1" parent="1" source="LUcZ1yVxdwstfHm7k2aB-2" target="LUcZ1yVxdwstfHm7k2aB-7">
          <mxGeometry relative="1" as="geometry" />
        </mxCell>
        <mxCell id="LUcZ1yVxdwstfHm7k2aB-2" value="Anfitrión" style="shape=umlActor;verticalLabelPosition=bottom;verticalAlign=top;html=1;outlineConnect=0;fillColor=#cce5ff;strokeColor=#36393d;" vertex="1" parent="1">
          <mxGeometry x="120" y="240" width="40" height="80" as="geometry" />
        </mxCell>
        <mxCell id="a0qmMqRgLdHtGVO5NYJr-7" style="edgeStyle=orthogonalEdgeStyle;orthogonalLoop=1;jettySize=auto;html=1;entryX=0;entryY=0.5;entryDx=0;entryDy=0;elbow=vertical;endArrow=none;endFill=0;" edge="1" parent="1" source="LUcZ1yVxdwstfHm7k2aB-3" target="LUcZ1yVxdwstfHm7k2aB-7">
          <mxGeometry relative="1" as="geometry">
            <Array as="points">
              <mxPoint x="320" y="640" />
              <mxPoint x="320" y="720" />
            </Array>
          </mxGeometry>
        </mxCell>
        <mxCell id="a0qmMqRgLdHtGVO5NYJr-8" style="edgeStyle=orthogonalEdgeStyle;orthogonalLoop=1;jettySize=auto;html=1;entryX=0;entryY=0.5;entryDx=0;entryDy=0;elbow=vertical;endArrow=none;endFill=0;" edge="1" parent="1" source="LUcZ1yVxdwstfHm7k2aB-3" target="LUcZ1yVxdwstfHm7k2aB-6">
          <mxGeometry relative="1" as="geometry">
            <Array as="points">
              <mxPoint x="320" y="640" />
              <mxPoint x="320" y="590" />
            </Array>
          </mxGeometry>
        </mxCell>
        <mxCell id="a0qmMqRgLdHtGVO5NYJr-9" style="edgeStyle=orthogonalEdgeStyle;orthogonalLoop=1;jettySize=auto;html=1;entryX=0;entryY=0.5;entryDx=0;entryDy=0;elbow=vertical;endArrow=none;endFill=0;" edge="1" parent="1" source="LUcZ1yVxdwstfHm7k2aB-3" target="2HoHB4noClraIpFDfGN8-1">
          <mxGeometry relative="1" as="geometry">
            <Array as="points">
              <mxPoint x="320" y="640" />
              <mxPoint x="320" y="460" />
            </Array>
          </mxGeometry>
        </mxCell>
        <mxCell id="a0qmMqRgLdHtGVO5NYJr-10" style="edgeStyle=orthogonalEdgeStyle;orthogonalLoop=1;jettySize=auto;html=1;entryX=0;entryY=0.5;entryDx=0;entryDy=0;elbow=vertical;endArrow=none;endFill=0;" edge="1" parent="1">
          <mxGeometry relative="1" as="geometry">
            <mxPoint x="160" y="640" as="sourcePoint" />
            <mxPoint x="370" y="200" as="targetPoint" />
            <Array as="points">
              <mxPoint x="320" y="640" />
              <mxPoint x="320" y="200" />
            </Array>
          </mxGeometry>
        </mxCell>
        <mxCell id="LUcZ1yVxdwstfHm7k2aB-3" value="Cliente" style="shape=umlActor;verticalLabelPosition=bottom;verticalAlign=top;html=1;outlineConnect=0;fillColor=#ffcc99;strokeColor=#36393d;" vertex="1" parent="1">
          <mxGeometry x="120" y="600" width="40" height="80" as="geometry" />
        </mxCell>
        <mxCell id="2HoHB4noClraIpFDfGN8-10" style="edgeStyle=orthogonalEdgeStyle;orthogonalLoop=1;jettySize=auto;html=1;entryX=0.5;entryY=0;entryDx=0;entryDy=0;elbow=vertical;endArrow=open;endFill=0;dashed=1;" edge="1" parent="1" source="LUcZ1yVxdwstfHm7k2aB-5" target="2HoHB4noClraIpFDfGN8-1">
          <mxGeometry relative="1" as="geometry" />
        </mxCell>
        <mxCell id="2HoHB4noClraIpFDfGN8-11" value="&amp;lt;&amp;lt;include&amp;gt;&amp;gt;" style="edgeLabel;html=1;align=center;verticalAlign=middle;resizable=0;points=[];" vertex="1" connectable="0" parent="2HoHB4noClraIpFDfGN8-10">
          <mxGeometry x="-0.0167" y="1" relative="1" as="geometry">
            <mxPoint as="offset" />
          </mxGeometry>
        </mxCell>
        <mxCell id="LUcZ1yVxdwstfHm7k2aB-5" value="Crear una sala" style="ellipse;whiteSpace=wrap;html=1;fillColor=#ffff88;strokeColor=#36393d;fontStyle=0" vertex="1" parent="1">
          <mxGeometry x="370" y="305" width="140" height="50" as="geometry" />
        </mxCell>
        <mxCell id="2HoHB4noClraIpFDfGN8-9" style="edgeStyle=orthogonalEdgeStyle;orthogonalLoop=1;jettySize=auto;html=1;entryX=0.5;entryY=1;entryDx=0;entryDy=0;elbow=vertical;endArrow=open;endFill=0;dashed=1;" edge="1" parent="1" source="LUcZ1yVxdwstfHm7k2aB-6" target="2HoHB4noClraIpFDfGN8-1">
          <mxGeometry relative="1" as="geometry" />
        </mxCell>
        <mxCell id="2HoHB4noClraIpFDfGN8-12" value="&amp;lt;&amp;lt;include&amp;gt;&amp;gt;" style="edgeLabel;html=1;align=center;verticalAlign=middle;resizable=0;points=[];" vertex="1" connectable="0" parent="2HoHB4noClraIpFDfGN8-9">
          <mxGeometry relative="1" as="geometry">
            <mxPoint as="offset" />
          </mxGeometry>
        </mxCell>
        <mxCell id="LUcZ1yVxdwstfHm7k2aB-6" value="Unirse a una sala" style="ellipse;whiteSpace=wrap;html=1;fillColor=#ffff88;strokeColor=#36393d;fontStyle=0" vertex="1" parent="1">
          <mxGeometry x="370" y="565" width="140" height="50" as="geometry" />
        </mxCell>
        <mxCell id="LUcZ1yVxdwstfHm7k2aB-7" value="Salir del juego" style="ellipse;whiteSpace=wrap;html=1;fillColor=#ffff88;strokeColor=#36393d;fontStyle=0" vertex="1" parent="1">
          <mxGeometry x="370" y="695" width="140" height="50" as="geometry" />
        </mxCell>
        <mxCell id="2HoHB4noClraIpFDfGN8-1" value="Iniciar modo multijugador" style="ellipse;whiteSpace=wrap;html=1;fillColor=#ffff88;strokeColor=#36393d;fontStyle=0" vertex="1" parent="1">
          <mxGeometry x="370" y="435" width="140" height="50" as="geometry" />
        </mxCell>
        <mxCell id="a0qmMqRgLdHtGVO5NYJr-1" value="Establecerse como listo" style="ellipse;whiteSpace=wrap;html=1;fillColor=#ffff88;strokeColor=#36393d;fontStyle=0" vertex="1" parent="1">
          <mxGeometry x="370" y="175" width="140" height="50" as="geometry" />
        </mxCell>
      </root>
    </mxGraphModel>
  </diagram>
  <diagram id="FUrHHQeV4ASQnSRhCUXY" name="Flujo de partida">
    <mxGraphModel dx="1434" dy="854" grid="1" gridSize="10" guides="1" tooltips="1" connect="1" arrows="1" fold="1" page="1" pageScale="1" pageWidth="827" pageHeight="1169" math="0" shadow="0">
      <root>
        <mxCell id="0" />
        <mxCell id="1" parent="0" />
        <mxCell id="23cG6fmh5YYWB6j6Y3ag-2" value="Aplicación" style="rounded=0;whiteSpace=wrap;html=1;verticalAlign=top;fillColor=#cce5ff;strokeColor=#36393d;" vertex="1" parent="1">
          <mxGeometry x="134" y="80" width="560" height="1040" as="geometry" />
        </mxCell>
        <mxCell id="wGGGPMqXFHpoNUDIlQIS-11" style="edgeStyle=orthogonalEdgeStyle;orthogonalLoop=1;jettySize=auto;html=1;entryX=0;entryY=0.5;entryDx=0;entryDy=0;elbow=vertical;endArrow=none;endFill=0;" edge="1" parent="1" source="23cG6fmh5YYWB6j6Y3ag-1" target="wGGGPMqXFHpoNUDIlQIS-1">
          <mxGeometry relative="1" as="geometry" />
        </mxCell>
        <mxCell id="wGGGPMqXFHpoNUDIlQIS-12" style="edgeStyle=orthogonalEdgeStyle;orthogonalLoop=1;jettySize=auto;html=1;entryX=0;entryY=0.5;entryDx=0;entryDy=0;elbow=vertical;endArrow=none;endFill=0;" edge="1" parent="1" source="23cG6fmh5YYWB6j6Y3ag-1" target="wGGGPMqXFHpoNUDIlQIS-8">
          <mxGeometry relative="1" as="geometry" />
        </mxCell>
        <mxCell id="wGGGPMqXFHpoNUDIlQIS-13" style="edgeStyle=orthogonalEdgeStyle;orthogonalLoop=1;jettySize=auto;html=1;entryX=0;entryY=0.5;entryDx=0;entryDy=0;elbow=vertical;endArrow=none;endFill=0;" edge="1" parent="1" source="23cG6fmh5YYWB6j6Y3ag-1" target="wGGGPMqXFHpoNUDIlQIS-2">
          <mxGeometry relative="1" as="geometry" />
        </mxCell>
        <mxCell id="wGGGPMqXFHpoNUDIlQIS-14" style="edgeStyle=orthogonalEdgeStyle;orthogonalLoop=1;jettySize=auto;html=1;entryX=0;entryY=0.5;entryDx=0;entryDy=0;elbow=vertical;endArrow=none;endFill=0;" edge="1" parent="1" source="23cG6fmh5YYWB6j6Y3ag-1" target="wGGGPMqXFHpoNUDIlQIS-9">
          <mxGeometry relative="1" as="geometry" />
        </mxCell>
        <mxCell id="wGGGPMqXFHpoNUDIlQIS-15" style="edgeStyle=orthogonalEdgeStyle;orthogonalLoop=1;jettySize=auto;html=1;entryX=0;entryY=0.5;entryDx=0;entryDy=0;elbow=vertical;endArrow=none;endFill=0;" edge="1" parent="1" source="23cG6fmh5YYWB6j6Y3ag-1" target="wGGGPMqXFHpoNUDIlQIS-4">
          <mxGeometry relative="1" as="geometry" />
        </mxCell>
        <mxCell id="wGGGPMqXFHpoNUDIlQIS-16" style="edgeStyle=orthogonalEdgeStyle;orthogonalLoop=1;jettySize=auto;html=1;entryX=0;entryY=0.5;entryDx=0;entryDy=0;elbow=vertical;endArrow=none;endFill=0;" edge="1" parent="1" source="23cG6fmh5YYWB6j6Y3ag-1" target="wGGGPMqXFHpoNUDIlQIS-5">
          <mxGeometry relative="1" as="geometry" />
        </mxCell>
        <mxCell id="wGGGPMqXFHpoNUDIlQIS-17" style="edgeStyle=orthogonalEdgeStyle;orthogonalLoop=1;jettySize=auto;html=1;entryX=0;entryY=0.5;entryDx=0;entryDy=0;elbow=vertical;endArrow=none;endFill=0;" edge="1" parent="1" source="23cG6fmh5YYWB6j6Y3ag-1" target="wGGGPMqXFHpoNUDIlQIS-7">
          <mxGeometry relative="1" as="geometry" />
        </mxCell>
        <mxCell id="wGGGPMqXFHpoNUDIlQIS-18" style="edgeStyle=orthogonalEdgeStyle;orthogonalLoop=1;jettySize=auto;html=1;entryX=0;entryY=0.5;entryDx=0;entryDy=0;elbow=vertical;endArrow=none;endFill=0;" edge="1" parent="1" source="23cG6fmh5YYWB6j6Y3ag-1" target="wGGGPMqXFHpoNUDIlQIS-6">
          <mxGeometry relative="1" as="geometry" />
        </mxCell>
        <mxCell id="wGGGPMqXFHpoNUDIlQIS-19" style="edgeStyle=orthogonalEdgeStyle;orthogonalLoop=1;jettySize=auto;html=1;entryX=0;entryY=0.5;entryDx=0;entryDy=0;elbow=vertical;endArrow=none;endFill=0;" edge="1" parent="1" source="23cG6fmh5YYWB6j6Y3ag-1" target="wGGGPMqXFHpoNUDIlQIS-3">
          <mxGeometry relative="1" as="geometry" />
        </mxCell>
        <mxCell id="wGGGPMqXFHpoNUDIlQIS-26" style="edgeStyle=orthogonalEdgeStyle;orthogonalLoop=1;jettySize=auto;html=1;entryX=0;entryY=0.5;entryDx=0;entryDy=0;elbow=vertical;endArrow=none;endFill=0;" edge="1" parent="1" source="23cG6fmh5YYWB6j6Y3ag-1" target="wGGGPMqXFHpoNUDIlQIS-25">
          <mxGeometry relative="1" as="geometry" />
        </mxCell>
        <mxCell id="23cG6fmh5YYWB6j6Y3ag-1" value="Jugador" style="shape=umlActor;verticalLabelPosition=bottom;verticalAlign=top;html=1;outlineConnect=0;fillColor=#cce5ff;strokeColor=#36393d;" vertex="1" parent="1">
          <mxGeometry x="54" y="560" width="40" height="80" as="geometry" />
        </mxCell>
        <mxCell id="wGGGPMqXFHpoNUDIlQIS-1" value="Mover el PJ" style="ellipse;whiteSpace=wrap;html=1;fillColor=#ffff88;strokeColor=#36393d;fontStyle=0" vertex="1" parent="1">
          <mxGeometry x="264" y="120" width="140" height="50" as="geometry" />
        </mxCell>
        <mxCell id="B5EgQ-24xU2B121eoe0T-19" style="edgeStyle=orthogonalEdgeStyle;orthogonalLoop=1;jettySize=auto;html=1;entryX=0;entryY=0.5;entryDx=0;entryDy=0;elbow=vertical;endArrow=open;endFill=0;dashed=1;" edge="1" parent="1" source="wGGGPMqXFHpoNUDIlQIS-2" target="B5EgQ-24xU2B121eoe0T-17">
          <mxGeometry relative="1" as="geometry" />
        </mxCell>
        <mxCell id="B5EgQ-24xU2B121eoe0T-20" value="&amp;lt;&amp;lt;extend&amp;gt;&amp;gt;" style="edgeLabel;html=1;align=center;verticalAlign=middle;resizable=0;points=[];" vertex="1" connectable="0" parent="B5EgQ-24xU2B121eoe0T-19">
          <mxGeometry x="-0.0159" y="-2" relative="1" as="geometry">
            <mxPoint as="offset" />
          </mxGeometry>
        </mxCell>
        <mxCell id="wGGGPMqXFHpoNUDIlQIS-2" value="Disparar proyectil" style="ellipse;whiteSpace=wrap;html=1;fillColor=#ffff88;strokeColor=#36393d;fontStyle=0" vertex="1" parent="1">
          <mxGeometry x="264" y="420" width="140" height="50" as="geometry" />
        </mxCell>
        <mxCell id="B5EgQ-24xU2B121eoe0T-7" style="edgeStyle=orthogonalEdgeStyle;orthogonalLoop=1;jettySize=auto;html=1;entryX=0.5;entryY=1;entryDx=0;entryDy=0;elbow=vertical;endArrow=open;endFill=0;dashed=1;" edge="1" parent="1" source="wGGGPMqXFHpoNUDIlQIS-3" target="wGGGPMqXFHpoNUDIlQIS-6">
          <mxGeometry relative="1" as="geometry" />
        </mxCell>
        <mxCell id="B5EgQ-24xU2B121eoe0T-8" value="&amp;lt;&amp;lt;extend&amp;gt;&amp;gt;" style="edgeLabel;html=1;align=center;verticalAlign=middle;resizable=0;points=[];" vertex="1" connectable="0" parent="B5EgQ-24xU2B121eoe0T-7">
          <mxGeometry x="-0.08" relative="1" as="geometry">
            <mxPoint as="offset" />
          </mxGeometry>
        </mxCell>
        <mxCell id="B5EgQ-24xU2B121eoe0T-10" style="edgeStyle=orthogonalEdgeStyle;orthogonalLoop=1;jettySize=auto;html=1;entryX=1;entryY=0.5;entryDx=0;entryDy=0;elbow=vertical;endArrow=open;endFill=0;dashed=1;" edge="1" parent="1" source="wGGGPMqXFHpoNUDIlQIS-3" target="wGGGPMqXFHpoNUDIlQIS-7">
          <mxGeometry relative="1" as="geometry">
            <Array as="points">
              <mxPoint x="434" y="1045" />
              <mxPoint x="434" y="845" />
            </Array>
          </mxGeometry>
        </mxCell>
        <mxCell id="B5EgQ-24xU2B121eoe0T-11" value="&amp;lt;&amp;lt;extend&amp;gt;&amp;gt;" style="edgeLabel;html=1;align=center;verticalAlign=middle;resizable=0;points=[];" vertex="1" connectable="0" parent="B5EgQ-24xU2B121eoe0T-10">
          <mxGeometry x="-0.3538" relative="1" as="geometry">
            <mxPoint as="offset" />
          </mxGeometry>
        </mxCell>
        <mxCell id="wGGGPMqXFHpoNUDIlQIS-3" value="Salir al menú principal" style="ellipse;whiteSpace=wrap;html=1;fillColor=#ffff88;strokeColor=#36393d;fontStyle=0" vertex="1" parent="1">
          <mxGeometry x="264" y="1020" width="140" height="50" as="geometry" />
        </mxCell>
        <mxCell id="wGGGPMqXFHpoNUDIlQIS-4" value="Curar al PJ" style="ellipse;whiteSpace=wrap;html=1;fillColor=#ffff88;strokeColor=#36393d;fontStyle=0" vertex="1" parent="1">
          <mxGeometry x="264" y="520" width="140" height="50" as="geometry" />
        </mxCell>
        <mxCell id="B5EgQ-24xU2B121eoe0T-3" style="edgeStyle=orthogonalEdgeStyle;orthogonalLoop=1;jettySize=auto;html=1;entryX=0.5;entryY=1;entryDx=0;entryDy=0;elbow=vertical;dashed=1;endArrow=open;endFill=0;" edge="1" parent="1" source="wGGGPMqXFHpoNUDIlQIS-5" target="wGGGPMqXFHpoNUDIlQIS-9">
          <mxGeometry relative="1" as="geometry" />
        </mxCell>
        <mxCell id="B5EgQ-24xU2B121eoe0T-4" value="&amp;lt;&amp;lt;extend&amp;gt;&amp;gt;" style="edgeLabel;html=1;align=center;verticalAlign=middle;resizable=0;points=[];" vertex="1" connectable="0" parent="B5EgQ-24xU2B121eoe0T-3">
          <mxGeometry relative="1" as="geometry">
            <mxPoint as="offset" />
          </mxGeometry>
        </mxCell>
        <mxCell id="wGGGPMqXFHpoNUDIlQIS-5" value="Matar al PJ" style="ellipse;whiteSpace=wrap;html=1;fillColor=#ffff88;strokeColor=#36393d;fontStyle=0" vertex="1" parent="1">
          <mxGeometry x="264" y="720" width="140" height="50" as="geometry" />
        </mxCell>
        <mxCell id="wGGGPMqXFHpoNUDIlQIS-6" value="Ganar la partida" style="ellipse;whiteSpace=wrap;html=1;fillColor=#ffff88;strokeColor=#36393d;fontStyle=0" vertex="1" parent="1">
          <mxGeometry x="264" y="920" width="140" height="50" as="geometry" />
        </mxCell>
        <mxCell id="B5EgQ-24xU2B121eoe0T-1" style="edgeStyle=orthogonalEdgeStyle;orthogonalLoop=1;jettySize=auto;html=1;entryX=0.5;entryY=1;entryDx=0;entryDy=0;elbow=vertical;endArrow=open;endFill=0;dashed=1;" edge="1" parent="1" source="wGGGPMqXFHpoNUDIlQIS-7" target="wGGGPMqXFHpoNUDIlQIS-5">
          <mxGeometry relative="1" as="geometry" />
        </mxCell>
        <mxCell id="B5EgQ-24xU2B121eoe0T-2" value="&amp;lt;&amp;lt;include&amp;gt;&amp;gt;" style="edgeLabel;html=1;align=center;verticalAlign=middle;resizable=0;points=[];" vertex="1" connectable="0" parent="B5EgQ-24xU2B121eoe0T-1">
          <mxGeometry relative="1" as="geometry">
            <mxPoint as="offset" />
          </mxGeometry>
        </mxCell>
        <mxCell id="wGGGPMqXFHpoNUDIlQIS-7" value="Perder la partida" style="ellipse;whiteSpace=wrap;html=1;fillColor=#ffff88;strokeColor=#36393d;fontStyle=0" vertex="1" parent="1">
          <mxGeometry x="264" y="820" width="140" height="50" as="geometry" />
        </mxCell>
        <mxCell id="wGGGPMqXFHpoNUDIlQIS-23" style="edgeStyle=orthogonalEdgeStyle;orthogonalLoop=1;jettySize=auto;html=1;entryX=0.5;entryY=1;entryDx=0;entryDy=0;elbow=vertical;endArrow=open;endFill=0;dashed=1;" edge="1" parent="1" source="wGGGPMqXFHpoNUDIlQIS-8" target="wGGGPMqXFHpoNUDIlQIS-1">
          <mxGeometry relative="1" as="geometry" />
        </mxCell>
        <mxCell id="wGGGPMqXFHpoNUDIlQIS-24" value="&amp;lt;&amp;lt;extend&amp;gt;&amp;gt;" style="edgeLabel;html=1;align=center;verticalAlign=middle;resizable=0;points=[];" vertex="1" connectable="0" parent="wGGGPMqXFHpoNUDIlQIS-23">
          <mxGeometry relative="1" as="geometry">
            <mxPoint as="offset" />
          </mxGeometry>
        </mxCell>
        <mxCell id="wGGGPMqXFHpoNUDIlQIS-8" value="Evadir" style="ellipse;whiteSpace=wrap;html=1;fillColor=#ffff88;strokeColor=#36393d;fontStyle=0" vertex="1" parent="1">
          <mxGeometry x="264" y="220" width="140" height="50" as="geometry" />
        </mxCell>
        <mxCell id="wGGGPMqXFHpoNUDIlQIS-9" value="Dañar al PJ" style="ellipse;whiteSpace=wrap;html=1;fillColor=#ffff88;strokeColor=#36393d;fontStyle=0" vertex="1" parent="1">
          <mxGeometry x="264" y="620" width="140" height="50" as="geometry" />
        </mxCell>
        <mxCell id="wGGGPMqXFHpoNUDIlQIS-25" value="Apuntar el arma del PJ" style="ellipse;whiteSpace=wrap;html=1;fillColor=#ffff88;strokeColor=#36393d;fontStyle=0" vertex="1" parent="1">
          <mxGeometry x="264" y="320" width="140" height="50" as="geometry" />
        </mxCell>
        <mxCell id="B5EgQ-24xU2B121eoe0T-26" style="edgeStyle=orthogonalEdgeStyle;orthogonalLoop=1;jettySize=auto;html=1;entryX=1;entryY=0.5;entryDx=0;entryDy=0;elbow=vertical;endArrow=none;endFill=0;" edge="1" parent="1" source="B5EgQ-24xU2B121eoe0T-13" target="B5EgQ-24xU2B121eoe0T-16">
          <mxGeometry relative="1" as="geometry" />
        </mxCell>
        <mxCell id="B5EgQ-24xU2B121eoe0T-27" style="edgeStyle=orthogonalEdgeStyle;orthogonalLoop=1;jettySize=auto;html=1;entryX=1;entryY=0.5;entryDx=0;entryDy=0;elbow=vertical;endArrow=none;endFill=0;" edge="1" parent="1" source="B5EgQ-24xU2B121eoe0T-13" target="B5EgQ-24xU2B121eoe0T-17">
          <mxGeometry relative="1" as="geometry" />
        </mxCell>
        <mxCell id="B5EgQ-24xU2B121eoe0T-28" style="edgeStyle=orthogonalEdgeStyle;orthogonalLoop=1;jettySize=auto;html=1;elbow=vertical;endArrow=none;endFill=0;" edge="1" parent="1" source="B5EgQ-24xU2B121eoe0T-13" target="B5EgQ-24xU2B121eoe0T-15">
          <mxGeometry relative="1" as="geometry" />
        </mxCell>
        <mxCell id="B5EgQ-24xU2B121eoe0T-29" style="edgeStyle=orthogonalEdgeStyle;orthogonalLoop=1;jettySize=auto;html=1;entryX=1;entryY=0.5;entryDx=0;entryDy=0;elbow=vertical;endArrow=none;endFill=0;" edge="1" parent="1" source="B5EgQ-24xU2B121eoe0T-13" target="B5EgQ-24xU2B121eoe0T-14">
          <mxGeometry relative="1" as="geometry" />
        </mxCell>
        <mxCell id="B5EgQ-24xU2B121eoe0T-13" value="Enemigo" style="shape=umlActor;verticalLabelPosition=bottom;verticalAlign=top;html=1;outlineConnect=0;fillColor=#ffcccc;strokeColor=#36393d;" vertex="1" parent="1">
          <mxGeometry x="734" y="560" width="40" height="80" as="geometry" />
        </mxCell>
        <mxCell id="B5EgQ-24xU2B121eoe0T-14" value="Perseguir al PJ" style="ellipse;whiteSpace=wrap;html=1;fillColor=#ffff88;strokeColor=#36393d;fontStyle=0" vertex="1" parent="1">
          <mxGeometry x="450" y="760" width="140" height="50" as="geometry" />
        </mxCell>
        <mxCell id="B5EgQ-24xU2B121eoe0T-24" style="edgeStyle=orthogonalEdgeStyle;orthogonalLoop=1;jettySize=auto;html=1;entryX=0.5;entryY=0;entryDx=0;entryDy=0;elbow=vertical;endArrow=none;endFill=0;dashed=1;startArrow=open;startFill=0;" edge="1" parent="1" source="B5EgQ-24xU2B121eoe0T-15" target="wGGGPMqXFHpoNUDIlQIS-9">
          <mxGeometry relative="1" as="geometry">
            <Array as="points">
              <mxPoint x="520" y="600" />
              <mxPoint x="334" y="600" />
            </Array>
          </mxGeometry>
        </mxCell>
        <mxCell id="B5EgQ-24xU2B121eoe0T-25" value="&amp;lt;&amp;lt;extend&amp;gt;&amp;gt;" style="edgeLabel;html=1;align=center;verticalAlign=middle;resizable=0;points=[];" vertex="1" connectable="0" parent="B5EgQ-24xU2B121eoe0T-24">
          <mxGeometry x="0.0339" relative="1" as="geometry">
            <mxPoint as="offset" />
          </mxGeometry>
        </mxCell>
        <mxCell id="B5EgQ-24xU2B121eoe0T-15" value="Atacar al PJ" style="ellipse;whiteSpace=wrap;html=1;fillColor=#ffff88;strokeColor=#36393d;fontStyle=0" vertex="1" parent="1">
          <mxGeometry x="450" y="630" width="140" height="50" as="geometry" />
        </mxCell>
        <mxCell id="B5EgQ-24xU2B121eoe0T-16" value="Matar al enemigo" style="ellipse;whiteSpace=wrap;html=1;fillColor=#ffff88;strokeColor=#36393d;fontStyle=0" vertex="1" parent="1">
          <mxGeometry x="450" y="370" width="140" height="50" as="geometry" />
        </mxCell>
        <mxCell id="B5EgQ-24xU2B121eoe0T-21" style="edgeStyle=orthogonalEdgeStyle;orthogonalLoop=1;jettySize=auto;html=1;entryX=0.5;entryY=1;entryDx=0;entryDy=0;elbow=vertical;endArrow=open;endFill=0;dashed=1;" edge="1" parent="1" source="B5EgQ-24xU2B121eoe0T-17" target="B5EgQ-24xU2B121eoe0T-16">
          <mxGeometry relative="1" as="geometry" />
        </mxCell>
        <mxCell id="B5EgQ-24xU2B121eoe0T-22" value="&amp;lt;&amp;lt;extend&amp;gt;&amp;gt;" style="edgeLabel;html=1;align=center;verticalAlign=middle;resizable=0;points=[];" vertex="1" connectable="0" parent="B5EgQ-24xU2B121eoe0T-21">
          <mxGeometry x="-0.05" y="1" relative="1" as="geometry">
            <mxPoint as="offset" />
          </mxGeometry>
        </mxCell>
        <mxCell id="B5EgQ-24xU2B121eoe0T-17" value="Dañar al enemigo" style="ellipse;whiteSpace=wrap;html=1;fillColor=#ffff88;strokeColor=#36393d;fontStyle=0" vertex="1" parent="1">
          <mxGeometry x="450" y="500" width="140" height="50" as="geometry" />
        </mxCell>
      </root>
    </mxGraphModel>
  </diagram>
</mxfile>
